<?xml version="1.0" encoding="UTF-8"?>
<svg version="1.1" xmlns="http://www.w3.org/2000/svg" width="448" height="236">
<path d="M0 0 C1.4625666 2.55337263 2.51676402 4.8119094 3.55078125 7.53515625 C3.85445114 8.28840683 4.15812103 9.04165741 4.47099304 9.81773376 C5.4368219 12.22570154 6.37478971 14.64346186 7.3125 17.0625 C7.96238732 18.69668267 8.61405892 20.33015697 9.26757812 21.96289062 C10.8658737 25.96733414 12.43926799 29.98077536 14 34 C13.76023437 33.29875 13.52046875 32.5975 13.2734375 31.875 C11.24570555 25.38625775 10.69577846 21.42756534 13 15 C17.67726589 14.90031239 22.35389875 14.82815066 27.03198242 14.78027344 C28.61965726 14.76029255 30.20725979 14.73309797 31.79467773 14.69824219 C40.66158707 14.50857568 48.10140033 14.39323923 56 19 C56 19.66 56 20.32 56 21 C56.66 21 57.32 21 58 21 C62.35314991 28.91481801 63.26262853 36.22783863 63.57080078 45.10107422 C63.86442711 51.96186305 65.68125893 57.65818754 68.625 63.8125 C71 68.78901734 71 68.78901734 71 71 C68.35409986 71.02684679 65.70846904 71.04676357 63.0625 71.0625 C62.30775391 71.07087891 61.55300781 71.07925781 60.77539062 71.08789062 C58.85005687 71.09652441 56.92464419 71.05224333 55 71 C54.67 70.67 54.34 70.34 54 70 C51.67182036 69.63239269 49.3381615 69.29758419 47 69 C47 68.34 47 67.68 47 67 C46.319375 66.896875 45.63875 66.79375 44.9375 66.6875 C41.37084011 65.85274981 38.33777806 64.50527246 35 63 C35 62.34 35 61.68 35 61 C34.01 61 33.02 61 32 61 C32 60.34 32 59.68 32 59 C31.43796875 58.95617187 30.8759375 58.91234375 30.296875 58.8671875 C26.89730846 57.58367768 25.30174501 54.97873003 23.25 52.125 C22.83878906 51.58230469 22.42757812 51.03960937 22.00390625 50.48046875 C19 46.39874896 19 46.39874896 19 43 C19 44.32 19 45.64 19 47 C19.81432825 49.4917236 19.81432825 49.4917236 20.96875 52.09765625 C21.37480469 53.06380859 21.78085937 54.02996094 22.19921875 55.02539062 C22.62847656 56.02763672 23.05773437 57.02988281 23.5 58.0625 C24.3485412 60.05134807 25.1925117 62.04215428 26.03125 64.03515625 C26.40830078 64.9156665 26.78535156 65.79617676 27.17382812 66.70336914 C28 69 28 69 28 72 C30.97 72.33 33.94 72.66 37 73 C37 75.31 37 77.62 37 80 C22.48 80 7.96 80 -7 80 C-6 75 -6 75 -4.37109375 73.41796875 C-2.58072917 72.27864583 -0.79036458 71.13932292 1 70 C0.01 67.36 -0.98 64.72 -2 62 C-9.59 62 -17.18 62 -25 62 C-26.32 65.3 -27.64 68.6 -29 72 C-26.03 72.33 -23.06 72.66 -20 73 C-20 75.31 -20 77.62 -20 80 C-28.33626401 80.2788732 -36.67056083 80.49165001 -45.01034546 80.62174606 C-48.88374274 80.68421179 -52.75393585 80.76880037 -56.62548828 80.90527344 C-60.36702493 81.0363277 -64.10549618 81.1075331 -67.84915161 81.13852692 C-69.27206719 81.16058868 -70.69482675 81.20368278 -72.11642456 81.26876068 C-76.65251328 81.46802537 -80.66692155 81.41546013 -85 80 C-88.5941737 76.4184749 -90.7218868 72.49408973 -93 68 C-94.09633578 66.35126592 -95.21501321 64.71678099 -96.37109375 63.109375 C-96.88220703 62.38105469 -97.39332031 61.65273437 -97.91992188 60.90234375 C-98.42072266 60.19207031 -98.92152344 59.48179687 -99.4375 58.75 C-99.96537109 57.99332031 -100.49324219 57.23664063 -101.03710938 56.45703125 C-101.79024414 55.38775391 -101.79024414 55.38775391 -102.55859375 54.296875 C-103.00517334 53.66104492 -103.45175293 53.02521484 -103.91186523 52.37011719 C-104.27094971 51.91797852 -104.63003418 51.46583984 -105 51 C-105.33 51 -105.66 51 -106 51 C-106.33 57.93 -106.66 64.86 -107 72 C-104.03 72.33 -101.06 72.66 -98 73 C-98 75.31 -98 77.62 -98 80 C-112.52 80 -127.04 80 -142 80 C-142 78.35 -142 76.7 -142 75 C-141.36304703 74.79699783 -140.72609406 74.59399567 -140.06983948 74.38484192 C-137.22406636 73.20839829 -135.25155336 72.1161763 -133 70 C-131.63091887 65.49312542 -131.81294279 61.06676112 -131.90234375 56.38671875 C-131.8966872 55.04862793 -131.88707171 53.7105485 -131.87367249 52.37251282 C-131.84909993 48.86177473 -131.87810287 45.35346864 -131.91845703 41.84295654 C-131.95014213 38.25654849 -131.93090483 34.67044799 -131.91601562 31.08398438 C-131.89431025 24.05545764 -131.92922831 17.02818745 -132 10 C-134.97 9.67 -137.94 9.34 -141 9 C-141 6.36 -141 3.72 -141 1 C-126.81 1 -112.62 1 -98 1 C-97.505 3.475 -97.505 3.475 -97 6 C-97.6496875 6.20109375 -98.299375 6.4021875 -98.96875 6.609375 C-102.22317117 8.07587343 -103.82977121 9.11482254 -106 12 C-107.23948466 18.53391571 -106.54055768 25.41166455 -106 32 C-105.56655273 31.53625977 -105.13310547 31.07251953 -104.68652344 30.59472656 C-102.70839268 28.47915219 -100.72920643 26.36456805 -98.75 24.25 C-97.72712891 23.15558594 -97.72712891 23.15558594 -96.68359375 22.0390625 C-96.01972656 21.33007812 -95.35585937 20.62109375 -94.671875 19.890625 C-94.0644043 19.24125977 -93.45693359 18.59189453 -92.83105469 17.92285156 C-91.51420297 16.53998168 -90.15489386 15.19709365 -88.77050781 13.88183594 C-86.77158833 12.18785874 -86.77158833 12.18785874 -87 10 C-89.475 9.505 -89.475 9.505 -92 9 C-92 6.69 -92 4.38 -92 2 C-88.52217417 0.84072472 -85.81196743 0.88686934 -82.14453125 0.90234375 C-81.48289474 0.9037587 -80.82125824 0.90517365 -80.13957214 0.90663147 C-78.03050172 0.91222004 -75.92153823 0.92477035 -73.8125 0.9375 C-72.38086091 0.94251648 -70.94922015 0.94707913 -69.51757812 0.95117188 C-66.01168412 0.9621857 -62.5058525 0.97944245 -59 1 C-58.505 3.475 -58.505 3.475 -58 6 C-60.94307331 8.03212205 -63.6476081 9.83684682 -66.90234375 11.34375 C-72.20386838 14.1783609 -75.91826121 18.65471588 -80 23 C-80.72574219 23.76828125 -81.45148438 24.5365625 -82.19921875 25.328125 C-85.99240748 29.06345702 -85.99240748 29.06345702 -87 34 C-85.89892411 35.91460489 -85.89892411 35.91460489 -84.359375 37.88671875 C-83.78848145 38.65314697 -83.21758789 39.4195752 -82.62939453 40.20922852 C-82.00919434 41.02705811 -81.38899414 41.8448877 -80.75 42.6875 C-80.12335449 43.52659912 -79.49670898 44.36569824 -78.85107422 45.23022461 C-75.72049469 49.41629951 -72.56078811 53.5800921 -69.3984375 57.7421875 C-68.56940918 58.83720581 -68.56940918 58.83720581 -67.72363281 59.9543457 C-66.67327143 61.33948171 -65.6180666 62.72096069 -64.55761719 64.09838867 C-61 68.77827681 -61 68.77827681 -61 71 C-59.46723828 71.44831766 -57.92294649 71.85730561 -56.375 72.25 C-55.51648438 72.48203125 -54.65796875 72.7140625 -53.7734375 72.953125 C-50.71836262 73.00476007 -49.0594699 72.39942075 -46.5713501 70.6439209 C-42.96619921 66.87227071 -41.47755484 61.57969357 -39.63671875 56.7890625 C-39.15926712 55.58816986 -38.68181549 54.38727722 -38.18989563 53.1499939 C-37.18259072 50.61415768 -36.18782484 48.0739001 -35.20288086 45.52929688 C-33.94457109 42.27889221 -32.66475716 39.03754046 -31.37658978 35.79886818 C-30.14303895 32.6944677 -28.92098848 29.58562017 -27.69921875 26.4765625 C-27.24197922 25.31702057 -26.78473969 24.15747864 -26.31364441 22.96279907 C-25.89262955 21.87502167 -25.47161469 20.78724426 -25.0378418 19.66650391 C-24.667332 18.7148233 -24.2968222 17.7631427 -23.91508484 16.78262329 C-22.46655843 12.37789146 -21.45094986 8.47503373 -23 4 C-20.10767725 3.13200283 -17.21215302 2.2803444 -14.3125 1.4375 C-13.08756836 1.0672168 -13.08756836 1.0672168 -11.83789062 0.68945312 C-10.64389648 0.34624023 -10.64389648 0.34624023 -9.42578125 -0.00390625 C-8.69786377 -0.21861572 -7.96994629 -0.4333252 -7.2199707 -0.65454102 C-4.30574883 -1.10803535 -2.75021853 -1.16203323 0 0 Z M-14 30 C-15.1721449 32.95619219 -16.33677476 35.91528789 -17.5 38.875 C-18.00080078 40.13763672 -18.00080078 40.13763672 -18.51171875 41.42578125 C-18.82753906 42.23144531 -19.14335937 43.03710938 -19.46875 43.8671875 C-19.76201172 44.61081543 -20.05527344 45.35444336 -20.35742188 46.12060547 C-21.10783991 47.98437213 -21.10783991 47.98437213 -21 50 C-16.05 50 -11.1 50 -6 50 C-8.31 43.4 -10.62 36.8 -13 30 C-13.33 30 -13.66 30 -14 30 Z " fill="#0A0A0A" transform="translate(327,76)"/>
<path d="M0 0 C114.84 0 229.68 0 348 0 C348.89808502 3.59234007 349.13198318 6.26851344 349.14526367 9.93017578 C349.15483345 11.7219072 349.15483345 11.7219072 349.16459656 13.54983521 C349.16626579 15.47809647 349.16626579 15.47809647 349.16796875 17.4453125 C349.1711829 18.78001949 349.17454709 20.11472612 349.17805481 21.44943237 C349.18403325 24.24184995 349.18589587 27.03423663 349.18530273 29.82666016 C349.1852008 33.40915471 349.19889046 36.99145244 349.21607494 40.57390022 C349.22984073 43.9893743 349.2292826 47.40481099 349.23046875 50.8203125 C349.23765427 52.10986847 349.24483978 53.39942444 349.25224304 54.72805786 C349.24916641 55.91624115 349.24608978 57.10442444 349.24291992 58.32861328 C349.24434494 59.37800079 349.24576996 60.42738831 349.24723816 61.50857544 C349 64 349 64 347 66 C344.53945291 66.24839699 344.53945291 66.24839699 341.36591148 66.24609566 C339.55728113 66.2520688 339.55728113 66.2520688 337.71211278 66.25816262 C336.36206002 66.25245582 335.01200803 66.24656461 333.66195679 66.24050903 C332.23717377 66.24138045 330.81239107 66.24313025 329.38761008 66.24568737 C325.45854515 66.25017751 321.52958843 66.24213446 317.6005373 66.23213124 C313.36876736 66.22352293 309.13700389 66.22641504 304.90522766 66.22793579 C297.56878581 66.22898631 290.23237943 66.22269234 282.8959465 66.21146011 C272.28860045 66.19523059 261.68127161 66.18999972 251.07391448 66.18748413 C233.86567284 66.18310302 216.65745012 66.16978264 199.44921875 66.15087891 C182.72949315 66.13253087 166.00977269 66.1183691 149.29003906 66.10986328 C148.26005104 66.10933783 147.23006301 66.10881239 146.16886322 66.10827102 C141.00189994 66.10566101 135.83493662 66.10313358 130.66797328 66.10064721 C87.77863574 66.07990175 44.88931885 66.04466491 2 66 C2 66.66 2 67.32 2 68 C1.34 68 0.68 68 0 68 C-0.15370219 59.42930537 -0.30188376 50.85854089 -0.4429636 42.28763008 C-0.508643 38.30807382 -0.5762437 34.32856932 -0.64819336 30.34912109 C-0.71752256 26.51073555 -0.78185965 22.67229617 -0.84269524 18.83376694 C-0.86682253 17.36727724 -0.89276686 15.90081631 -0.92053413 14.43439102 C-0.95903632 12.38485463 -0.99115177 10.3353123 -1.02172852 8.28564453 C-1.04171402 7.11760284 -1.06169952 5.94956116 -1.08229065 4.74612427 C-1 2 -1 2 0 0 Z M67 6 C66.14746726 16.1898318 66.14746726 16.1898318 65.8671875 26.328125 C65.86623077 27.04683777 65.86527405 27.76555054 65.86428833 28.50604248 C65.86361721 30.00142506 65.86539548 31.49681076 65.86962891 32.9921875 C65.87502494 35.26048358 65.8696309 37.52858461 65.86328125 39.796875 C65.86394161 41.26562543 65.86522188 42.73437574 65.8671875 44.203125 C65.86831543 45.50926758 65.86944336 46.81541016 65.87060547 48.16113281 C66.00414886 52.12308805 66.50830086 56.06640685 67 60 C157.75 60 248.5 60 342 60 C342 42.18 342 24.36 342 6 C251.25 6 160.5 6 67 6 Z " fill="#B7C237" transform="translate(14,159)"/>
<path d="M0 0 C-0.3125 2.875 -0.3125 2.875 -1 6 C-1.99 6.66 -2.98 7.32 -4 8 C-8.77546575 17.2260008 -8.57018563 27.03926389 -8.5625 37.125 C-8.5951087 57.19021739 -8.5951087 57.19021739 -13 66 C-13.66 66 -14.32 66 -15 66 C-15.2784375 66.86625 -15.2784375 66.86625 -15.5625 67.75 C-18.79126205 72.80371451 -26.1078967 75.34532813 -31.77612305 76.62841797 C-40.48978016 78.025674 -49.0036527 78.23816662 -57.8125 78.125 C-59.19856112 78.11493373 -60.58462946 78.10581442 -61.97070312 78.09765625 C-65.31399273 78.07435806 -68.65689731 78.04164862 -72 78 C-75.09172001 71.81655999 -72.70365561 62.67938798 -71.375 56.1875 C-71.1996875 55.32165283 -71.024375 54.45580566 -70.84375 53.5637207 C-69.22607235 46.11450904 -66.683947 39.69808545 -63 33 C-62.57976562 32.2265625 -62.15953125 31.453125 -61.7265625 30.65625 C-60.84832728 29.08663812 -59.93063281 27.5391235 -59 26 C-58.34 26 -57.68 26 -57 26 C-56.7421875 25.40703125 -56.484375 24.8140625 -56.21875 24.203125 C-54.90230105 21.82339035 -53.57419218 20.49021208 -51.5 18.75 C-50.8915625 18.22921875 -50.283125 17.7084375 -49.65625 17.171875 C-48 16 -48 16 -46 16 C-46 15.34 -46 14.68 -46 14 C-44.35 13.34 -42.7 12.68 -41 12 C-41 11.34 -41 10.68 -41 10 C-39.68 10 -38.36 10 -37 10 C-37 9.34 -37 8.68 -37 8 C-24.79391874 2.71257309 -13.41200645 -0.8020469 0 0 Z " fill="#B0BA34" transform="translate(411,5)"/>
<path d="M0 0 C1.1864624 1.84590149 1.1864624 1.84590149 2.16308594 4.29418945 C2.53737732 5.21057693 2.9116687 6.12696442 3.29730225 7.07112122 C3.68903625 8.07503403 4.08077026 9.07894684 4.484375 10.11328125 C5.11330658 11.67141792 5.11330658 11.67141792 5.75494385 13.2610321 C7.10114677 16.60591005 8.42578474 19.95886466 9.75 23.3125 C10.62619587 25.4999136 11.50378533 27.68676952 12.3828125 29.87304688 C14.10883112 34.17248812 15.82373145 38.47609713 17.52929688 42.78369141 C19.14113203 46.85150933 20.77195034 50.91068231 22.42382812 54.96240234 C22.79896545 55.88619186 23.17410278 56.80998138 23.56060791 57.76176453 C24.26205452 59.48690895 24.96736275 61.21049009 25.67718506 62.9322052 C25.98513 63.69216293 26.29307495 64.45212067 26.61035156 65.23510742 C26.88026917 65.89379318 27.15018677 66.55247894 27.42828369 67.23112488 C28 69 28 69 28 72 C30.97 72.33 33.94 72.66 37 73 C37 75.31 37 77.62 37 80 C22.48 80 7.96 80 -7 80 C-6 75 -6 75 -4.37109375 73.41796875 C-2.58072917 72.27864583 -0.79036458 71.13932292 1 70 C0.01 67.36 -0.98 64.72 -2 62 C-9.59 62 -17.18 62 -25 62 C-26.98 66.95 -26.98 66.95 -29 72 C-26.03 72.33 -23.06 72.66 -20 73 C-20 75.31 -20 77.62 -20 80 C-31.22 80 -42.44 80 -54 80 C-54.33 78.68 -54.66 77.36 -55 76 C-54.3448793 75.63975235 -53.68975861 75.2795047 -53.01478577 74.90834045 C-45.13814706 70.08224761 -42.406008 65.00288361 -39.24609375 56.49609375 C-38.77430191 55.29944595 -38.30251007 54.10279816 -37.81642151 52.86988831 C-36.57371984 49.71471191 -35.36995203 46.54603384 -34.17327881 43.37316895 C-33.1910061 40.78902986 -32.18093745 38.21620513 -31.16934109 35.64343166 C-29.07484755 30.31341615 -27.00179176 24.97477765 -24.97436523 19.61889648 C-24.43669777 18.2049485 -24.43669777 18.2049485 -23.88816833 16.76243591 C-22.47281877 12.36032844 -21.4549919 8.46335675 -23 4 C-20.77155786 3.3516711 -18.5422154 2.70643631 -16.3125 2.0625 C-15.07113281 1.70285156 -13.82976563 1.34320313 -12.55078125 0.97265625 C-3.68308818 -1.45644779 -3.68308818 -1.45644779 0 0 Z M-14 30 C-16.31 36.6 -18.62 43.2 -21 50 C-16.05 50 -11.1 50 -6 50 C-8.31 43.4 -10.62 36.8 -13 30 C-13.33 30 -13.66 30 -14 30 Z " fill="#090A0A" transform="translate(66,76)"/>
<path d="M0 0 C114.84 0 229.68 0 348 0 C348.89808502 3.59234007 349.13198318 6.26851344 349.14526367 9.93017578 C349.15483345 11.7219072 349.15483345 11.7219072 349.16459656 13.54983521 C349.16626579 15.47809647 349.16626579 15.47809647 349.16796875 17.4453125 C349.1711829 18.78001949 349.17454709 20.11472612 349.17805481 21.44943237 C349.18403325 24.24184995 349.18589587 27.03423663 349.18530273 29.82666016 C349.1852008 33.40915471 349.19889046 36.99145244 349.21607494 40.57390022 C349.22984073 43.9893743 349.2292826 47.40481099 349.23046875 50.8203125 C349.23765427 52.10986847 349.24483978 53.39942444 349.25224304 54.72805786 C349.24916641 55.91624115 349.24608978 57.10442444 349.24291992 58.32861328 C349.24434494 59.37800079 349.24576996 60.42738831 349.24723816 61.50857544 C349 64 349 64 347 66 C344.53945291 66.24839699 344.53945291 66.24839699 341.36591148 66.24609566 C339.55728113 66.2520688 339.55728113 66.2520688 337.71211278 66.25816262 C336.36206002 66.25245582 335.01200803 66.24656461 333.66195679 66.24050903 C332.23717377 66.24138045 330.81239107 66.24313025 329.38761008 66.24568737 C325.45854515 66.25017751 321.52958843 66.24213446 317.6005373 66.23213124 C313.36876736 66.22352293 309.13700389 66.22641504 304.90522766 66.22793579 C297.56878581 66.22898631 290.23237943 66.22269234 282.8959465 66.21146011 C272.28860045 66.19523059 261.68127161 66.18999972 251.07391448 66.18748413 C233.86567284 66.18310302 216.65745012 66.16978264 199.44921875 66.15087891 C182.72949315 66.13253087 166.00977269 66.1183691 149.29003906 66.10986328 C148.26005104 66.10933783 147.23006301 66.10881239 146.16886322 66.10827102 C141.00189994 66.10566101 135.83493662 66.10313358 130.66797328 66.10064721 C87.77863574 66.07990175 44.88931885 66.04466491 2 66 C2 66.66 2 67.32 2 68 C1.34 68 0.68 68 0 68 C0 66.68 0 65.36 0 64 C21.12 64 42.24 64 64 64 C64.33 60.04 64.66 56.08 65 52 C65.66 52 66.32 52 67 52 C67 54.64 67 57.28 67 60 C157.75 60 248.5 60 342 60 C342 42.18 342 24.36 342 6 C251.25 6 160.5 6 67 6 C67 9.96 67 13.92 67 18 C66.67 18 66.34 18 66 18 C66 13.71 66 9.42 66 5 C158.07 4.67 250.14 4.34 345 4 C345.33 3.34 345.66 2.68 346 2 C232.15 2 118.3 2 1 2 C1 2.66 1 3.32 1 4 C0.34 4 -0.32 4 -1 4 C-0.67 2.68 -0.34 1.36 0 0 Z " fill="#CED574" transform="translate(14,159)"/>
<path d="M0 0 C1.47583955 0.0001591 2.95168467 0.00585225 4.42749023 0.01586914 C5.20293686 0.01728409 5.97838348 0.01869904 6.77732849 0.02015686 C9.26361893 0.02577194 11.74982059 0.03832693 14.23608398 0.05102539 C15.91772331 0.05603845 17.59936405 0.06060169 19.28100586 0.06469727 C23.41189965 0.07574626 27.54272674 0.09302094 31.67358398 0.11352539 C32.33358398 1.76352539 32.99358398 3.41352539 33.67358398 5.11352539 C32.02358398 6.43352539 30.37358398 7.75352539 28.67358398 9.11352539 C29.30006836 10.23629883 29.92655273 11.35907227 30.57202148 12.51586914 C31.39812773 14.02726806 32.22361559 15.5390051 33.04858398 17.05102539 C33.66733398 18.15414062 33.66733398 18.15414062 34.29858398 19.27954102 C37.13139725 24.51110745 38.6148855 29.25578158 39.67358398 35.11352539 C40.33358398 35.11352539 40.99358398 35.11352539 41.67358398 35.11352539 C41.89788086 34.33750977 42.12217773 33.56149414 42.35327148 32.76196289 C44.11922499 27.88207955 46.44591458 23.35819277 48.79858398 18.73852539 C49.26651367 17.81168945 49.73444336 16.88485352 50.21655273 15.92993164 C51.36527454 13.65593133 52.5177028 11.38389257 53.67358398 9.11352539 C51.36358398 8.78352539 49.05358398 8.45352539 46.67358398 8.11352539 C46.67358398 5.47352539 46.67358398 2.83352539 46.67358398 0.11352539 C57.23358398 0.11352539 67.79358398 0.11352539 78.67358398 0.11352539 C79.16858398 2.58852539 79.16858398 2.58852539 79.67358398 5.11352539 C78.21908998 6.11910149 76.75985955 7.11782974 75.29858398 8.11352539 C74.48647461 8.67040039 73.67436523 9.22727539 72.83764648 9.80102539 C70.67358398 11.11352539 70.67358398 11.11352539 68.67358398 11.11352539 C68.39885254 11.83499756 68.12412109 12.55646973 67.84106445 13.29980469 C66.70848071 16.0294215 65.4227465 18.54785906 63.99389648 21.13305664 C63.47698242 22.07342773 62.96006836 23.01379883 62.42749023 23.98266602 C61.88995117 24.95397461 61.35241211 25.9252832 60.79858398 26.92602539 C59.21972485 29.78602691 57.64496618 32.6472476 56.09350586 35.5222168 C55.23946474 37.08081248 54.35804592 38.62547233 53.42553711 40.13842773 C49.89998055 46.17206649 50.00997544 52.25718545 49.92358398 59.11352539 C49.87911133 60.84795898 49.87911133 60.84795898 49.83374023 62.61743164 C49.76352289 65.44953101 49.71058766 68.28083012 49.67358398 71.11352539 C52.97358398 71.44352539 56.27358398 71.77352539 59.67358398 72.11352539 C59.67358398 74.42352539 59.67358398 76.73352539 59.67358398 79.11352539 C45.15358398 79.11352539 30.63358398 79.11352539 15.67358398 79.11352539 C16.67358398 74.11352539 16.67358398 74.11352539 18.47729492 72.828125 C19.19691406 72.49820557 19.9165332 72.16828613 20.65795898 71.82836914 C23.68049212 70.117152 23.68049212 70.117152 25.52319336 67.29370117 C25.9129293 65.03226378 25.98646163 62.97046615 25.92358398 60.67602539 C25.91190186 59.85054199 25.90021973 59.02505859 25.88818359 58.17456055 C25.20335564 47.75309615 19.63044353 39.4474024 14.27758789 30.76293945 C11.82752606 26.7160489 9.62134187 22.55115124 7.42358398 18.36352539 C7.04145752 17.65437988 6.65933105 16.94523437 6.265625 16.21459961 C3.67358398 11.35263059 3.67358398 11.35263059 3.67358398 9.11352539 C1.03358398 8.78352539 -1.60641602 8.45352539 -4.32641602 8.11352539 C-4.36883325 5.78057764 -4.36734539 3.44649972 -4.32641602 1.11352539 C-3.32641602 0.11352539 -3.32641602 0.11352539 0 0 Z " fill="#0E0E0E" transform="translate(104.326416015625,76.886474609375)"/>
<path d="M0 0 C4.67726589 -0.09968761 9.35389875 -0.17184934 14.03198242 -0.21972656 C15.61965726 -0.23970745 17.20725979 -0.26690203 18.79467773 -0.30175781 C27.66158707 -0.49142432 35.10140033 -0.60676077 43 4 C43 4.66 43 5.32 43 6 C43.66 6 44.32 6 45 6 C49.35314991 13.91481801 50.26262853 21.22783863 50.57080078 30.10107422 C50.86442711 36.96186305 52.68125893 42.65818754 55.625 48.8125 C58 53.78901734 58 53.78901734 58 56 C55.35409986 56.02684679 52.70846904 56.04676357 50.0625 56.0625 C49.30775391 56.07087891 48.55300781 56.07925781 47.77539062 56.08789062 C45.85005687 56.09652441 43.92464419 56.05224333 42 56 C41.67 55.67 41.34 55.34 41 55 C38.67182036 54.63239269 36.3381615 54.29758419 34 54 C34 53.34 34 52.68 34 52 C33.319375 51.896875 32.63875 51.79375 31.9375 51.6875 C28.37084011 50.85274981 25.33777806 49.50527246 22 48 C22 47.34 22 46.68 22 46 C21.01 46 20.02 46 19 46 C19 45.34 19 44.68 19 44 C18.43796875 43.95617187 17.8759375 43.91234375 17.296875 43.8671875 C13.89730846 42.58367768 12.30174501 39.97873003 10.25 37.125 C9.63318359 36.31095703 9.63318359 36.31095703 9.00390625 35.48046875 C6 31.39874896 6 31.39874896 6 28 C5.01 28 4.02 28 3 28 C1.4748629 23.93296772 0.72275534 20.21914749 0.29296875 15.9375 C0.03980151 13.7719611 0.03980151 13.7719611 -1.1875 11 C-2.32782555 6.78956719 -1.15283099 4.18276224 0 0 Z " fill="#C8D439" transform="translate(340,91)"/>
<path d="M0 0 C0.680625 0.721875 1.36125 1.44375 2.0625 2.1875 C8.0671917 8.12024801 13.93072861 10.95356482 21.875 13.4375 C37.79821188 18.72353763 37.79821188 18.72353763 42.6875 25.25390625 C47.43528201 35.18750969 43.17193177 49.07047446 40 59 C39.05774972 61.3650425 38.04468105 63.67715619 37 66 C28.72414346 65.31034529 22.7498307 61.70918421 16 57 C15.01 56.34 14.02 55.68 13 55 C13 54.34 13 53.68 13 53 C12.4225 52.773125 11.845 52.54625 11.25 52.3125 C4.12958178 48.1589227 1.14811895 38.77691543 -1.1328125 31.2734375 C-2.26182441 26.49915239 -2.29417866 21.82292319 -2.25 16.9375 C-2.25773437 16.07833984 -2.26546875 15.21917969 -2.2734375 14.33398438 C-2.25766139 9.17125224 -1.67144493 4.88831314 0 0 Z " fill="#477C31" transform="translate(289,8)"/>
<path d="M0 0 C2.60444348 -0.05394705 5.20776998 -0.09364469 7.8125 -0.125 C8.55048828 -0.14175781 9.28847656 -0.15851563 10.04882812 -0.17578125 C13.91246426 -0.21074628 15.70903668 -0.19397555 19 2 C19.96904954 4.83260635 20.23775515 6.35988999 19.1875 9.1875 C18 11 18 11 16 13 C16.95421808 14.14926266 17.91352045 15.29430541 18.875 16.4375 C19.40867187 17.07558594 19.94234375 17.71367187 20.4921875 18.37109375 C21.9222757 20.10805004 21.9222757 20.10805004 24 21 C23.67 21.99 23.34 22.98 23 24 C20.3125 24.3125 20.3125 24.3125 17 24 C13.35415587 21.09989671 11.39448252 18.43698984 10 14 C9.67 14.33 9.34 14.66 9 15 C9.32743697 16.92139613 9.32743697 16.92139613 9.9375 19.0625 C10.288125 20.361875 10.63875 21.66125 11 23 C7.37 23 3.74 23 0 23 C0.495 21.515 0.495 21.515 1 20 C1.14403348 18.66636297 1.24590423 17.32781954 1.31640625 15.98828125 C1.35830078 15.23095703 1.40019531 14.47363281 1.44335938 13.69335938 C1.48267578 12.90767578 1.52199219 12.12199219 1.5625 11.3125 C1.60568359 10.51521484 1.64886719 9.71792969 1.69335938 8.89648438 C1.79927368 6.93118553 1.90012551 4.96561504 2 3 C1.34 3 0.68 3 0 3 C0 2.01 0 1.02 0 0 Z " fill="#274836" transform="translate(239,182)"/>
<path d="M0 0 C6.27 0 12.54 0 19 0 C19.33 1.98 19.66 3.96 20 6 C18.68 6 17.36 6 16 6 C15.67 5.34 15.34 4.68 15 4 C11.97065509 3.34227572 11.97065509 3.34227572 9 3 C9 4.98 9 6.96 9 9 C10.32 9 11.64 9 13 9 C13.33 8.34 13.66 7.68 14 7 C14.99 7 15.98 7 17 7 C17 9.64 17 12.28 17 15 C16.01 15.33 15.02 15.66 14 16 C14 15.01 14 14.02 14 13 C12.35 13 10.7 13 9 13 C9 15.31 9 17.62 9 20 C12.43230448 19.73606499 12.43230448 19.73606499 16 19 C16.66 18.01 17.32 17.02 18 16 C18.99 16 19.98 16 21 16 C20.67 18.31 20.34 20.62 20 23 C17.17554408 23.94148531 15.85828382 24.07311695 12.98828125 23.87890625 C12.23095703 23.83056641 11.47363281 23.78222656 10.69335938 23.73242188 C9.90767578 23.67634766 9.12199219 23.62027344 8.3125 23.5625 C7.51521484 23.51029297 6.71792969 23.45808594 5.89648438 23.40429688 C3.93063478 23.27480978 1.96526335 23.13809959 0 23 C0.31710937 22.51015625 0.63421875 22.0203125 0.9609375 21.515625 C2.41373615 17.998323 2.46584752 14.50334607 2.625 10.75 C2.66367187 10.00492188 2.70234375 9.25984375 2.7421875 8.4921875 C2.83605108 6.6618476 2.91909718 4.83095857 3 3 C2.01 3 1.02 3 0 3 C0 2.01 0 1.02 0 0 Z " fill="#1F4730" transform="translate(295,182)"/>
<path d="M0 0 C1.33912585 3.12254943 2.67030658 6.24842358 4 9.375 C4.3815625 10.26445312 4.763125 11.15390625 5.15625 12.0703125 C5.5171875 12.92109375 5.878125 13.771875 6.25 14.6484375 C6.58515625 15.43395996 6.9203125 16.21948242 7.265625 17.02880859 C8 19 8 19 8 21 C8.66 21 9.32 21 10 21 C10 21.99 10 22.98 10 24 C6.37 24 2.74 24 -1 24 C-0.67 22.02 -0.34 20.04 0 18 C-2.31 18.33 -4.62 18.66 -7 19 C-6.67 20.65 -6.34 22.3 -6 24 C-8.64 24 -11.28 24 -14 24 C-14 23.01 -14 22.02 -14 21 C-13.34 21 -12.68 21 -12 21 C-11.84144531 20.39414063 -11.68289062 19.78828125 -11.51953125 19.1640625 C-9.73598635 12.75906699 -7.48525024 6.69372564 -4 1 C-2 0 -2 0 0 0 Z " fill="#204732" transform="translate(196,181)"/>
<path d="M0 0 C1 1 1 1 1.0625 4.0625 C1.041875 5.031875 1.02125 6.00125 1 7 C0.01 7 -0.98 7 -2 7 C-2.33 5.68 -2.66 4.36 -3 3 C-5.97 3.66 -8.94 4.32 -12 5 C-12.60720954 11.6281259 -12.60720954 11.6281259 -10.3125 17.625 C-7.56954367 19.25594701 -6.13538083 19.57757015 -3 19 C-2.34 18.01 -1.68 17.02 -1 16 C-0.01 16 0.98 16 2 16 C1.8125 18.875 1.8125 18.875 1 22 C-2.75266146 24.78423269 -7.1875627 24.1589901 -11.62109375 23.6171875 C-15.1454452 22.70282374 -16.84434726 20.85102459 -19 18 C-20.61196185 14.77607629 -20.44914272 11.49550204 -20 8 C-18.154169 3.92378988 -16.29264463 1.82916754 -12.25 0.0625 C-7.86955118 -1.34285975 -4.46569718 -0.94014678 0 0 Z " fill="#3F5C4D" transform="translate(147,182)"/>
<path d="M0 0 C1.65 0.33 3.3 0.66 5 1 C5.38150593 5.0058123 5.31831686 6.56933601 2.875 9.875 C0.76402113 12.70393693 0.76402113 12.70393693 1.1796875 15.15625 C1.68760275 17.13224906 2.33490309 19.07121896 3 21 C-0.63 21 -4.26 21 -8 21 C-7.505 19.515 -7.505 19.515 -7 18 C-6.85596652 16.66636297 -6.75409577 15.32781954 -6.68359375 13.98828125 C-6.64169922 13.23095703 -6.59980469 12.47363281 -6.55664062 11.69335938 C-6.51732422 10.90767578 -6.47800781 10.12199219 -6.4375 9.3125 C-6.39431641 8.51521484 -6.35113281 7.71792969 -6.30664062 6.89648438 C-6.20072632 4.93118553 -6.09987449 2.96561504 -6 1 C-3.83125748 1.50603992 -2.00032373 1.99983813 0 3 C0 2.01 0 1.02 0 0 Z " fill="#426350" transform="translate(247,184)"/>
<path d="M0 0 C0.66 0 1.32 0 2 0 C2 0.66 2 1.32 2 2 C7.61 2 13.22 2 19 2 C20.125 8.75 20.125 8.75 18 12 C10 12.30769231 10 12.30769231 7 10 C6.25 7.875 6.25 7.875 6 6 C4.68 6 3.36 6 2 6 C2 6.66 2 7.32 2 8 C1.01 8 0.02 8 -1 8 C-1 7.34 -1 6.68 -1 6 C-2.98 6 -4.96 6 -7 6 C-7.33 4.68 -7.66 3.36 -8 2 C-6.68 2 -5.36 2 -4 2 C-4 2.66 -4 3.32 -4 4 C-2.68 4 -1.36 4 0 4 C0 2.68 0 1.36 0 0 Z " fill="#C8D434" transform="translate(372,133)"/>
<path d="M0 0 C-0.3125 2.875 -0.3125 2.875 -1 6 C-1.99 6.66 -2.98 7.32 -4 8 C-5.23852312 10.8666949 -5.23852312 10.8666949 -6.1875 14.125 C-6.53167969 15.22070312 -6.87585938 16.31640625 -7.23046875 17.4453125 C-7.48441406 18.28835937 -7.73835938 19.13140625 -8 20 C-8.33 20 -8.66 20 -9 20 C-9.33 15.05 -9.66 10.1 -10 5 C-11.32 5.33 -12.64 5.66 -14 6 C-16.24907152 6.06790675 -18.50001605 6.08499984 -20.75 6.0625 C-21.92046875 6.05347656 -23.0909375 6.04445313 -24.296875 6.03515625 C-25.18890625 6.02355469 -26.0809375 6.01195312 -27 6 C-27 6.66 -27 7.32 -27 8 C-28.65 8 -30.3 8 -32 8 C-32 8.66 -32 9.32 -32 10 C-33.65 10 -35.3 10 -37 10 C-37 9.34 -37 8.68 -37 8 C-24.79391874 2.71257309 -13.41200645 -0.8020469 0 0 Z " fill="#BBC35F" transform="translate(411,5)"/>
<path d="M0 0 C1.03930664 0.02030273 1.03930664 0.02030273 2.09960938 0.04101562 C3.79591265 0.07611155 5.49181136 0.12991057 7.1875 0.1875 C7.1875 0.8475 7.1875 1.5075 7.1875 2.1875 C8.8375 2.1875 10.4875 2.1875 12.1875 2.1875 C12.1875 3.5075 12.1875 4.8275 12.1875 6.1875 C10.5375 6.1875 8.8875 6.1875 7.1875 6.1875 C7.1875 5.5275 7.1875 4.8675 7.1875 4.1875 C4.8775 3.8575 2.5675 3.5275 0.1875 3.1875 C0.5175 4.8375 0.8475 6.4875 1.1875 8.1875 C-4.7525 8.1875 -10.6925 8.1875 -16.8125 8.1875 C-16.8125 7.8575 -16.8125 7.5275 -16.8125 7.1875 C-19.4525 6.8575 -22.0925 6.5275 -24.8125 6.1875 C-24.8125 5.5275 -24.8125 4.8675 -24.8125 4.1875 C-23.60013672 4.13142578 -23.60013672 4.13142578 -22.36328125 4.07421875 C-21.29464844 4.00847656 -20.22601563 3.94273438 -19.125 3.875 C-18.06925781 3.81699219 -17.01351563 3.75898437 -15.92578125 3.69921875 C-12.78706862 3.39271357 -12.78706862 3.39271357 -10.40625 1.65625 C-6.94627897 -0.30301071 -3.85587786 -0.14390358 0 0 Z " fill="#AFBB2D" transform="translate(366.8125,72.8125)"/>
<path d="M0 0 C0.33 0 0.66 0 1 0 C1.33 3.63 1.66 7.26 2 11 C6.62 11 11.24 11 16 11 C15.67 11.66 15.34 12.32 15 13 C11.04 13 7.08 13 3 13 C3 13.66 3 14.32 3 15 C5.97 15 8.94 15 12 15 C12 15.33 12 15.66 12 16 C19.59 16.33 27.18 16.66 35 17 C35 17.33 35 17.66 35 18 C30.9269597 18.97685365 27.131793 19.11545444 22.94921875 19.09765625 C22.29041214 19.0962413 21.63160553 19.09482635 20.95283508 19.09336853 C18.86434238 19.087805 16.77595989 19.07525947 14.6875 19.0625 C13.26497551 19.05748028 11.84244934 19.0529182 10.41992188 19.04882812 C6.94657923 19.03784757 3.47330039 19.02060835 0 19 C-2.68655265 13.6268947 -0.99998243 5.74989899 0 0 Z " fill="#C6CB72" transform="translate(339,64)"/>
<path d="M0 0 C1.32 1.32 2.64 2.64 4 4 C3.01 4.495 3.01 4.495 2 5 C2.165 5.78375 2.33 6.5675 2.5 7.375 C3.12306791 11.89224236 3.48263406 16.45178748 3 21 C2.34 21.66 1.68 22.32 1 23 C0.3574765 25.06874034 0.3574765 25.06874034 0 27 C0.99 27 1.98 27 3 27 C3.66 32.28 4.32 37.56 5 43 C-1.97854082 36.02145918 -2.36551102 26.00959985 -2.375 16.625 C-2.37653076 15.78138916 -2.37806152 14.93777832 -2.37963867 14.06860352 C-2.29038926 9.03024973 -1.60937166 4.77661508 0 0 Z " fill="#648E4F" transform="translate(289,8)"/>
<path d="M0 0 C0.33 0 0.66 0 1 0 C1.3403125 1.3921875 1.3403125 1.3921875 1.6875 2.8125 C2.95135709 7.31441432 4.96730993 11.43439219 6.9765625 15.64453125 C8 18 8 18 8 20 C5.35409986 20.02684679 2.70846904 20.04676357 0.0625 20.0625 C-0.69224609 20.07087891 -1.44699219 20.07925781 -2.22460938 20.08789062 C-4.14994313 20.09652441 -6.07535581 20.05224333 -8 20 C-8.33 19.67 -8.66 19.34 -9 19 C-11.32817964 18.63239269 -13.6618385 18.29758419 -16 18 C-16 17.34 -16 16.68 -16 16 C-16.7425 15.87625 -17.485 15.7525 -18.25 15.625 C-20.80141485 15.04513299 -22.7267573 14.26291261 -25 13 C-25 12.67 -25 12.34 -25 12 C-23.02 12 -21.04 12 -19 12 C-19 12.66 -19 13.32 -19 14 C-18.01 14 -17.02 14 -16 14 C-16 13.34 -16 12.68 -16 12 C-14.68 12 -13.36 12 -12 12 C-11.67 13.32 -11.34 14.64 -11 16 C-7.37 16.66 -3.74 17.32 0 18 C0.185625 16.72125 0.37125 15.4425 0.5625 14.125 C0.66691406 13.40570313 0.77132813 12.68640625 0.87890625 11.9453125 C1.1684297 9.91859333 1.1684297 9.91859333 0 8 C-0.13415472 5.3276379 -0.04318541 2.67749512 0 0 Z " fill="#D3DA70" transform="translate(390,127)"/>
<path d="M0 0 C6.5997337 1.80392721 12.19884964 3.75990254 16.140625 9.7265625 C19.61378947 18.91466124 16.55286038 30.98901067 14 40 C13.67 40 13.34 40 13 40 C11.80892397 33.0024283 11.20621256 25.95092634 13 19 C13.33 19 13.66 19 14 19 C14.41771804 15.66799815 14.41771804 15.66799815 14 12 C11.60140956 9.66369252 11.60140956 9.66369252 9 8 C9 7.34 9 6.68 9 6 C8.15115234 5.72736328 8.15115234 5.72736328 7.28515625 5.44921875 C6.55167969 5.19785156 5.81820313 4.94648438 5.0625 4.6875 C4.33160156 4.44386719 3.60070312 4.20023438 2.84765625 3.94921875 C1 3 1 3 0 0 Z " fill="#4B7B2F" transform="translate(316,24)"/>
<path d="M0 0 C-0.66 8.25 -1.32 16.5 -2 25 C-2.66 25 -3.32 25 -4 25 C-4 19.72 -4 14.44 -4 9 C-5.32 9.33 -6.64 9.66 -8 10 C-8.66 9.67 -9.32 9.34 -10 9 C-10 8.34 -10 7.68 -10 7 C-8.68 7 -7.36 7 -6 7 C-6 6.01 -6 5.02 -6 4 C-8.31 3.67 -10.62 3.34 -13 3 C-13 2.34 -13 1.68 -13 1 C-11.39796533 0.63631108 -9.79325797 0.28438048 -8.1875 -0.0625 C-7.29417969 -0.25972656 -6.40085937 -0.45695313 -5.48046875 -0.66015625 C-3 -1 -3 -1 0 0 Z " fill="#AFBB2B" transform="translate(402,10)"/>
<path d="M0 0 C4.67726589 -0.09968761 9.35389875 -0.17184934 14.03198242 -0.21972656 C15.61965726 -0.23970745 17.20725979 -0.26690203 18.79467773 -0.30175781 C27.66158707 -0.49142432 35.10140033 -0.60676077 43 4 C43 4.66 43 5.32 43 6 C41.02 6 39.04 6 37 6 C37 5.34 37 4.68 37 4 C36.01 4 35.02 4 34 4 C34 3.34 34 2.68 34 2 C23.44 2 12.88 2 2 2 C2 6.95 2 11.9 2 17 C-0.35465306 13.46802041 -2.40600755 10.31114083 -1.63574219 5.92651367 C-1.09049479 3.95100911 -0.5452474 1.97550456 0 0 Z " fill="#E5EBB2" transform="translate(340,91)"/>
<path d="M0 0 C0.33 0.66 0.66 1.32 1 2 C1.99 2.33 2.98 2.66 4 3 C4 3.99 4 4.98 4 6 C5.98 5.67 7.96 5.34 10 5 C9.67 7.31 9.34 9.62 9 12 C11.64 12 14.28 12 17 12 C17 12.66 17 13.32 17 14 C16.01 14 15.02 14 14 14 C14 14.66 14 15.32 14 16 C15.98 15.34 17.96 14.68 20 14 C20 14.66 20 15.32 20 16 C19.34 16 18.68 16 18 16 C18 16.66 18 17.32 18 18 C18.66 18.33 19.32 18.66 20 19 C18.68 19.33 17.36 19.66 16 20 C16 19.34 16 18.68 16 18 C15.01 18 14.02 18 13 18 C13 17.34 13 16.68 13 16 C12.43796875 15.95617187 11.8759375 15.91234375 11.296875 15.8671875 C7.89730846 14.58367768 6.30174501 11.97873003 4.25 9.125 C3.83878906 8.58230469 3.42757813 8.03960937 3.00390625 7.48046875 C0 3.39874896 0 3.39874896 0 0 Z " fill="#D8E07B" transform="translate(346,119)"/>
<path d="M0 0 C0.66 0 1.32 0 2 0 C7.47440278 9.9534596 7.24027953 19.00053726 7 30 C4.48842217 27.06421465 3.58808126 25.09588955 3.3125 21.25 C3.24804688 20.38117188 3.18359375 19.51234375 3.1171875 18.6171875 C2.95831989 15.0691441 2.93423906 11.55109084 3 8 C2.01 8 1.02 8 0 8 C0 5.36 0 2.72 0 0 Z " fill="#D0DA66" transform="translate(383,97)"/>
<path d="M0 0 C0.66 0 1.32 0 2 0 C2.024759 4.48404564 2.04288799 8.96805481 2.05493164 13.45214844 C2.05995365 14.97689507 2.0667725 16.50163691 2.07543945 18.02636719 C2.08759849 20.22071519 2.09324968 22.4149994 2.09765625 24.609375 C2.10289307 25.92905273 2.10812988 27.24873047 2.11352539 28.60839844 C2.02311329 31.30948418 1.81881355 33.4500616 1 36 C0.01 36 -0.98 36 -2 36 C-2 34.68 -2 33.36 -2 32 C-1.34 32 -0.68 32 0 32 C0 21.44 0 10.88 0 0 Z " fill="#B5C72B" transform="translate(78,179)"/>
<path d="M0 0 C1 1 1 1 1.0625 4.0625 C1.041875 5.031875 1.02125 6.00125 1 7 C0.01 7 -0.98 7 -2 7 C-2.33 5.68 -2.66 4.36 -3 3 C-5.97 3.66 -8.94 4.32 -12 5 C-12 4.34 -12 3.68 -12 3 C-13.32 2.67 -14.64 2.34 -16 2 C-9.99708278 -0.67987376 -6.45247202 -1.35841516 0 0 Z " fill="#53675D" transform="translate(147,182)"/>
<path d="M0 0 C6.27 0 12.54 0 19 0 C19.33 1.98 19.66 3.96 20 6 C18.68 6 17.36 6 16 6 C15.67 5.34 15.34 4.68 15 4 C11.97065509 3.34227572 11.97065509 3.34227572 9 3 C9 4.98 9 6.96 9 9 C9.99 9.33 10.98 9.66 12 10 C10.68 10 9.36 10 8 10 C8 7.36 8 4.72 8 2 C4.95613276 1.91773332 2.92824652 2.02391783 0 3 C0 2.01 0 1.02 0 0 Z " fill="#5B7064" transform="translate(295,182)"/>
<path d="M0 0 C0.33 1.32 0.66 2.64 1 4 C0.34 4 -0.32 4 -1 4 C-1.33 7.3 -1.66 10.6 -2 14 C-2.66 14 -3.32 14 -4 14 C-3.67 14.99 -3.34 15.98 -3 17 C-3.96679688 17.58201172 -3.96679688 17.58201172 -4.953125 18.17578125 C-7.20878584 19.83946485 -7.20878584 19.83946485 -7.609375 22.48046875 C-7.65578125 23.37378906 -7.7021875 24.26710938 -7.75 25.1875 C-7.80671875 26.08855469 -7.8634375 26.98960938 -7.921875 27.91796875 C-7.94765625 28.60503906 -7.9734375 29.29210937 -8 30 C-8.66 29.34 -9.32 28.68 -10 28 C-10 21.85843833 -8.36605747 16.82498937 -6.125 11.1875 C-5.86847656 10.54143799 -5.61195313 9.89537598 -5.34765625 9.22973633 C-3.92338121 5.79564101 -2.39718934 2.84935379 0 0 Z " fill="#CBD081" transform="translate(350,35)"/>
<path d="M0 0 C0.7425 0.763125 1.485 1.52625 2.25 2.3125 C4.4263323 4.4393702 6.52167796 6.2559956 9 8 C8.67 8.99 8.34 9.98 8 11 C5.3125 11.3125 5.3125 11.3125 2 11 C-1.64584413 8.09989671 -3.60551748 5.43698984 -5 1 C-1.83884224 2.36983503 -1.0072908 2.9890638 1 6 C0.67 4.02 0.34 2.04 0 0 Z " fill="#345743" transform="translate(254,195)"/>
<path d="M0 0 C2.475 0.99 2.475 0.99 5 2 C4.34 3.98 3.68 5.96 3 8 C3.66 8 4.32 8 5 8 C4.67 9.65 4.34 11.3 4 13 C2.35 13 0.7 13 -1 13 C-3.28964059 8.05919662 -3.28964059 8.05919662 -2.46484375 5.04296875 C-1.71434788 3.32904563 -0.86320768 1.66001476 0 0 Z " fill="#0E3820" transform="translate(191,183)"/>
<path d="M0 0 C6.62946675 1.81205425 12.09828379 3.78021609 16.15234375 9.67578125 C17.36851029 13.01043145 17.21093813 16.25297905 17.125 19.75 C17.11597656 20.44738281 17.10695313 21.14476563 17.09765625 21.86328125 C17.07419888 23.57566958 17.03833104 25.28788004 17 27 C16.67 27 16.34 27 16 27 C15.97421875 26.10796875 15.9484375 25.2159375 15.921875 24.296875 C15.83679688 22.54117188 15.83679688 22.54117188 15.75 20.75 C15.70359375 19.58984375 15.6571875 18.4296875 15.609375 17.234375 C14.90212939 13.48053292 13.90325584 12.37936005 11 10 C10.34 9.34 9.68 8.68 9 8 C9 7.34 9 6.68 9 6 C8.15115234 5.72736328 8.15115234 5.72736328 7.28515625 5.44921875 C6.55167969 5.19785156 5.81820313 4.94648438 5.0625 4.6875 C4.33160156 4.44386719 3.60070312 4.20023438 2.84765625 3.94921875 C1 3 1 3 0 0 Z " fill="#8AA87F" transform="translate(316,24)"/>
<path d="M0 0 C0.33 0 0.66 0 1 0 C1.07487239 4.6589823 1.12893832 9.31760455 1.16479492 13.97705078 C1.17976271 15.55784211 1.20014437 17.13859278 1.22631836 18.71923828 C1.51574617 36.66376226 1.51574617 36.66376226 -2 44 C-2.66 44.66 -3.32 45.32 -4 46 C-4 44.02 -4 42.04 -4 40 C-3.34 40 -2.68 40 -2 40 C-2.020625 38.700625 -2.04125 37.40125 -2.0625 36.0625 C-2.08399454 34.70834367 -2.07148199 33.35243917 -2 32 C-1.67 31.67 -1.34 31.34 -1 31 C-0.84111908 28.71011219 -0.74861927 26.41556559 -0.68359375 24.12109375 C-0.66281265 23.4344313 -0.64203156 22.74776886 -0.62062073 22.04029846 C-0.55505857 19.83947065 -0.49620985 17.63852025 -0.4375 15.4375 C-0.39432108 13.94855486 -0.350707 12.45962227 -0.30664062 10.97070312 C-0.1993707 7.31393447 -0.09812228 3.65702682 0 0 Z " fill="#CFD488" transform="translate(401,25)"/>
<path d="M0 0 C0.99 0 1.98 0 3 0 C3.66 1.65 4.32 3.3 5 5 C5.66 3.35 6.32 1.7 7 0 C7.99 0 8.98 0 10 0 C10 2.97 10 5.94 10 9 C8 9 6 9 4 9 C3.67 8.34 3.34 7.68 3 7 C2.34 7.66 1.68 8.32 1 9 C-0.06546953 5.8035914 -0.07427838 3.34252724 0 0 Z " fill="#6F6F6F" transform="translate(422,7)"/>
<path d="M0 0 C1.32 0 2.64 0 4 0 C3.88590318 2.10478604 3.75834639 4.20884577 3.625 6.3125 C3.55539063 7.48425781 3.48578125 8.65601563 3.4140625 9.86328125 C3 13 3 13 1 16 C0.34 15.67 -0.32 15.34 -1 15 C-0.67 14.01 -0.34 13.02 0 12 C-0.66 11.34 -1.32 10.68 -2 10 C-1.70630173 8.65737935 -1.3721042 7.32303717 -1 6 C-1.33 5.34 -1.66 4.68 -2 4 C-1.34 4 -0.68 4 0 4 C0 2.68 0 1.36 0 0 Z " fill="#022E14" transform="translate(131,185)"/>
<path d="M0 0 C2.97 0.33 5.94 0.66 9 1 C8.67 1.99 8.34 2.98 8 4 C10.97 4 13.94 4 17 4 C16.67 4.66 16.34 5.32 16 6 C11.38 6 6.76 6 2 6 C1.34 4.02 0.68 2.04 0 0 Z " fill="#B9C351" transform="translate(366,75)"/>
<path d="M0 0 C0 0.99 0 1.98 0 3 C-1 4 -2 5 -3 6 C-3.71447643 8.10332891 -3.71447643 8.10332891 -4 10 C-4.66 10 -5.32 10 -6 10 C-5.67 10.66 -5.34 11.32 -5 12 C-4.960008 13.99960012 -4.95653201 16.00047242 -5 18 C-5.33 16.68 -5.66 15.36 -6 14 C-6.66 14 -7.32 14 -8 14 C-8 13.34 -8 12.68 -8 12 C-8.99 12 -9.98 12 -11 12 C-10.67 10.68 -10.34 9.36 -10 8 C-9.34 8 -8.68 8 -8 8 C-7.7525 7.4225 -7.505 6.845 -7.25 6.25 C-5.58207452 3.24773413 -3.67725381 0 0 0 Z " fill="#B8BF5A" transform="translate(362,23)"/>
<path d="M0 0 C1 4 1 4 1 5 C3.64 5.33 6.28 5.66 9 6 C9 6.33 9 6.66 9 7 C6.69 7.33 4.38 7.66 2 8 C2.33 9.65 2.66 11.3 3 13 C0.36 13 -2.28 13 -5 13 C-5 12.01 -5 11.02 -5 10 C-4.34 10 -3.68 10 -3 10 C-2.01 6.7 -1.02 3.4 0 0 Z " fill="#4C695A" transform="translate(187,192)"/>
<path d="M0 0 C2.4375 0.6875 2.4375 0.6875 5 2 C5.103125 2.804375 5.20625 3.60875 5.3125 4.4375 C5.539375 5.283125 5.76625 6.12875 6 7 C8.55282368 8.38550687 11.20973523 9.21821739 14 10 C14 11.32 14 12.64 14 14 C14.33 14.66 14.66 15.32 15 16 C12.50638429 14.79618552 10.31856917 13.54571278 8 12 C8 11.34 8 10.68 8 10 C7.4225 9.773125 6.845 9.54625 6.25 9.3125 C3.3831729 7.64018419 1.86288964 5.72780269 0 3 C0 2.01 0 1.02 0 0 Z " fill="#88A97B" transform="translate(294,51)"/>
<path d="M0 0 C0.99 0 1.98 0 3 0 C2.67 2.31 2.34 4.62 2 7 C-1.69418201 8.231394 -4.2056261 7.64432764 -8 7 C-8.33 6.01 -8.66 5.02 -9 4 C-7.88625 3.896875 -6.7725 3.79375 -5.625 3.6875 C-4.42875 3.460625 -3.2325 3.23375 -2 3 C-1.34 2.01 -0.68 1.02 0 0 Z " fill="#213C2E" transform="translate(313,198)"/>
<path d="M0 0 C3.14550813 -0.11792821 6.29043541 -0.18781383 9.4375 -0.25 C10.31599609 -0.28351563 11.19449219 -0.31703125 12.09960938 -0.3515625 C18.60525728 -0.44758682 23.28858134 0.90293239 29 4 C29 4.66 29 5.32 29 6 C27.02 6 25.04 6 23 6 C23 5.34 23 4.68 23 4 C22.01 4 21.02 4 20 4 C20 3.34 20 2.68 20 2 C13.4 1.67 6.8 1.34 0 1 C0 0.67 0 0.34 0 0 Z " fill="#E1E793" transform="translate(354,91)"/>
<path d="M0 0 C0.99 0.33 1.98 0.66 3 1 C3.33 3.31 3.66 5.62 4 8 C3.34 8 2.68 8 2 8 C2 8.66 2 9.32 2 10 C-0.64 10 -3.28 10 -6 10 C-6.33 9.34 -6.66 8.68 -7 8 C-6.0625 5.375 -6.0625 5.375 -5 3 C-4.67 3 -4.34 3 -4 3 C-4 4.65 -4 6.3 -4 8 C-2.35 8 -0.7 8 1 8 C1.33 6.35 1.66 4.7 2 3 C1.34 3 0.68 3 0 3 C0 2.01 0 1.02 0 0 Z " fill="#112F1F" transform="translate(194,188)"/>
<path d="M0 0 C-0.37109375 2.9140625 -0.37109375 2.9140625 -1 6 C-3.0625 7.375 -3.0625 7.375 -5 8 C-3.125 3.25 -3.125 3.25 -2 1 C-7.07488994 1.42014339 -11.26315766 2.07965851 -16 4 C-19.3125 4.125 -19.3125 4.125 -22 4 C-21 2 -21 2 -17.75 0.875 C-11.90962021 -0.4891763 -5.957937 -0.16347998 0 0 Z " fill="#DEE2AD" transform="translate(411,5)"/>
<path d="M0 0 C1.32 0 2.64 0 4 0 C4.66 5.28 5.32 10.56 6 16 C3.16975328 13.16975328 2.45980969 12.16226003 1.3125 8.5625 C1.06113281 7.80066406 0.80976563 7.03882813 0.55078125 6.25390625 C0 4 0 4 0 0 Z " fill="#729164" transform="translate(288,35)"/>
<path d="M0 0 C1.20628008 2.33214148 2.1654738 4.49642139 3 7 C-0.3 7 -3.6 7 -7 7 C-4.91100178 2.82200357 -3.94455388 2.07608099 0 0 Z " fill="#173F28" transform="translate(302,198)"/>
<path d="M0 0 C2 3 2 3 1.6875 5.625 C1 8 1 8 0 9 C-1.99958364 9.04080783 -4.00045254 9.04254356 -6 9 C-6 8.34 -6 7.68 -6 7 C-5.01 7 -4.02 7 -3 7 C-3 5.02 -3 3.04 -3 1 C-2.01 0.67 -1.02 0.34 0 0 Z " fill="#0B321C" transform="translate(245,196)"/>
<path d="M0 0 C2.475 0.495 2.475 0.495 5 1 C5 2.98 5 4.96 5 7 C3.35 7.33 1.7 7.66 0 8 C0 5.36 0 2.72 0 0 Z " fill="#CEE4D8" transform="translate(247,184)"/>
<path d="M0 0 C1.32 0.33 2.64 0.66 4 1 C4 1.99 4 2.98 4 4 C2.02 4 0.04 4 -2 4 C-1.67 4.99 -1.34 5.98 -1 7 C-2 8 -2 8 -5.0625 8.0625 C-6.031875 8.041875 -7.00125 8.02125 -8 8 C-7.67 7.34 -7.34 6.68 -7 6 C-6.34 6 -5.68 6 -5 6 C-5 5.34 -5 4.68 -5 4 C-3.35 3.34 -1.7 2.68 0 2 C0 1.34 0 0.68 0 0 Z " fill="#CAD284" transform="translate(370,15)"/>
<path d="M0 0 C0.83764268 1.95649397 1.66999059 3.91525556 2.5 5.875 C3.19609375 7.51082031 3.19609375 7.51082031 3.90625 9.1796875 C5 12 5 12 5 14 C4.01 14 3.02 14 2 14 C1.73445312 13.31292969 1.46890625 12.62585938 1.1953125 11.91796875 C0.84210938 11.01691406 0.48890625 10.11585938 0.125 9.1875 C-0.22304687 8.29417969 -0.57109375 7.40085938 -0.9296875 6.48046875 C-1.98832155 3.82288409 -1.98832155 3.82288409 -4 1 C-2 0 -2 0 0 0 Z " fill="#415C4E" transform="translate(196,181)"/>
<path d="M0 0 C0.95190012 2.74993369 0.96516628 4.19352068 0.4375 7.125 C0.293125 8.07375 0.14875 9.0225 0 10 C0.66 10.66 1.32 11.32 2 12 C0.35 12.33 -1.3 12.66 -3 13 C-3.27429625 7.60550707 -3.36055646 4.48074195 0 0 Z " fill="#375543" transform="translate(130,185)"/>
<path d="M0 0 C2 2 2 2 2.1953125 5.6953125 C2.182009 7.17200108 2.15814835 8.64862358 2.125 10.125 C2.11597656 10.87910156 2.10695313 11.63320312 2.09765625 12.41015625 C2.0740687 14.27357254 2.03819719 16.13682593 2 18 C-0.53835868 15.41596392 -0.99485632 14.23931642 -1.07421875 10.546875 C-0.94660156 9.29390625 -0.81898438 8.0409375 -0.6875 6.75 C-0.56761719 5.48671875 -0.44773437 4.2234375 -0.32421875 2.921875 C-0.21722656 1.95765625 -0.11023438 0.9934375 0 0 Z " fill="#D9DE6F" transform="translate(388,109)"/>
<path d="M0 0 C0.99 0 1.98 0 3 0 C3.40652968 5.42039575 2.03993514 9.07015675 0 14 C-0.33 14 -0.66 14 -1 14 C-1.02694851 12.04174127 -1.04637218 10.08337774 -1.0625 8.125 C-1.07410156 7.03445312 -1.08570313 5.94390625 -1.09765625 4.8203125 C-1 2 -1 2 0 0 Z " fill="#C2C67C" transform="translate(403,11)"/>
<path d="M0 0 C0.7425 0.763125 1.485 1.52625 2.25 2.3125 C4.4263323 4.4393702 6.52167796 6.2559956 9 8 C8.67 8.99 8.34 9.98 8 11 C6.02 11 4.04 11 2 11 C2.99 10.67 3.98 10.34 5 10 C5 9.01 5 8.02 5 7 C3.68 6.67 2.36 6.34 1 6 C0.67 4.02 0.34 2.04 0 0 Z " fill="#657D6E" transform="translate(254,195)"/>
<path d="M0 0 C0.33 1.32 0.66 2.64 1 4 C0.34 4 -0.32 4 -1 4 C-1.33 7.3 -1.66 10.6 -2 14 C-2.66 14 -3.32 14 -4 14 C-4.33 14.66 -4.66 15.32 -5 16 C-4.70887831 9.58076669 -3.54784971 5.37899794 0 0 Z " fill="#C4C876" transform="translate(350,35)"/>
<path d="M0 0 C0.99 0.33 1.98 0.66 3 1 C6 7.11111111 6 7.11111111 6 10 C3 9 3 9 1.9375 7 C1.628125 6.34 1.31875 5.68 1 5 C0.34 4.67 -0.32 4.34 -1 4 C-0.67 2.68 -0.34 1.36 0 0 Z " fill="#042F17" transform="translate(250,192)"/>
<path d="M0 0 C1.125 1.6875 1.125 1.6875 2 4 C1.24101587 7.18773336 0.69126741 8.57304072 -2.125 10.3125 C-3.053125 10.6528125 -3.053125 10.6528125 -4 11 C-5.61949011 8.42786866 -6.04408751 7.32330841 -5.625 4.25 C-5.41875 3.5075 -5.2125 2.765 -5 2 C-4.01 3.32 -3.02 4.64 -2 6 C-1.34 4.02 -0.68 2.04 0 0 Z " fill="#436651" transform="translate(257,184)"/>
<path d="M0 0 C4.62 0 9.24 0 14 0 C13.67 0.99 13.34 1.98 13 3 C11.02 2.34 9.04 1.68 7 1 C7 1.99 7 2.98 7 4 C4.97954558 3.39816251 2.97888961 2.72693904 1 2 C0.67 1.34 0.34 0.68 0 0 Z " fill="#0B2F1B" transform="translate(240,183)"/>
<path d="M0 0 C0.33 0 0.66 0 1 0 C1.268125 0.969375 1.53625 1.93875 1.8125 2.9375 C3.06628255 7.33926896 4.5264507 11.66776506 6 16 C5.34 16 4.68 16 4 16 C0.67424388 10.4174808 -0.46450943 6.50313209 0 0 Z " fill="#E6EAAB" transform="translate(390,127)"/>
<path d="M0 0 C0.66 0 1.32 0 2 0 C2.33 2.64 2.66 5.28 3 8 C1.68 8 0.36 8 -1 8 C-1.04241723 5.66705225 -1.04092937 3.33297433 -1 1 C-0.67 0.67 -0.34 0.34 0 0 Z " fill="#010210" transform="translate(329,91)"/>
<path d="M0 0 C0.66 0 1.32 0 2 0 C1.67 1.65 1.34 3.3 1 5 C-4.75 5.125 -4.75 5.125 -7 4 C-7 3.34 -7 2.68 -7 2 C-4.69 2 -2.38 2 0 2 C0 1.34 0 0.68 0 0 Z " fill="#5F824F" transform="translate(326,67)"/>
<path d="M0 0 C3.63 1.98 7.26 3.96 11 6 C8 8 8 8 4.9375 7.5 C2 6 2 6 0.625 2.875 C0.41875 1.92625 0.2125 0.9775 0 0 Z " fill="#81A177" transform="translate(293,13)"/>
<path d="M0 0 C0.66 0 1.32 0 2 0 C1.88557539 1.60495567 1.75805306 3.20898119 1.625 4.8125 C1.55539062 5.70582031 1.48578125 6.59914063 1.4140625 7.51953125 C1 10 1 10 -1 13 C-2.20577428 8.05632546 -1.6290678 4.79137588 0 0 Z " fill="#88A276" transform="translate(330,51)"/>
<path d="M0 0 C2.6855594 2.6855594 3.06049974 5.37621328 4 9 C2.35 8.67 0.7 8.34 -1 8 C-0.7525 7.13375 -0.7525 7.13375 -0.5 6.25 C0.14462031 3.73335631 0.14462031 3.73335631 0 0 Z " fill="#3A393F" transform="translate(335,98)"/>
<path d="M0 0 C1.98 0 3.96 0 6 0 C6 1.32 6 2.64 6 4 C4.35 4 2.7 4 1 4 C0.67 2.68 0.34 1.36 0 0 Z " fill="#AFBE28" transform="translate(362,23)"/>
<path d="M0 0 C0.99 0 1.98 0 3 0 C3 1.65 3 3.3 3 5 C2.67 4.34 2.34 3.68 2 3 C1.01 3.66 0.02 4.32 -1 5 C-3.04296875 5.1953125 -3.04296875 5.1953125 -5.1875 5.125 C-7.0746875 5.063125 -7.0746875 5.063125 -9 5 C-9 4.67 -9 4.34 -9 4 C-7.88625 3.896875 -6.7725 3.79375 -5.625 3.6875 C-4.42875 3.460625 -3.2325 3.23375 -2 3 C-1.34 2.01 -0.68 1.02 0 0 Z " fill="#7C9386" transform="translate(313,198)"/>
<path d="M0 0 C0.99 0 1.98 0 3 0 C2.67 1.98 2.34 3.96 2 6 C1.01 6 0.02 6 -1 6 C-0.67 5.34 -0.34 4.68 0 4 C-0.66 3.67 -1.32 3.34 -2 3 C-1.34 2.01 -0.68 1.02 0 0 Z " fill="#52655A" transform="translate(146,198)"/>
<path d="M0 0 C0.99 0.33 1.98 0.66 3 1 C3.33 3.31 3.66 5.62 4 8 C3.01 8.33 2.02 8.66 1 9 C1.33 7.02 1.66 5.04 2 3 C1.34 3 0.68 3 0 3 C0 2.01 0 1.02 0 0 Z " fill="#023014" transform="translate(194,188)"/>
<path d="M0 0 C1.74627478 2.61941217 2.38722388 4.03824877 3 7 C1.35 7 -0.3 7 -2 7 C-1.125 1.125 -1.125 1.125 0 0 Z " fill="#DDEBDF" transform="translate(192,189)"/>
<path d="M0 0 C0 1.98 0 3.96 0 6 C-0.99 6 -1.98 6 -3 6 C-3.66 4.35 -4.32 2.7 -5 1 C-3 0 -3 0 0 0 Z " fill="#2F463A" transform="translate(148,183)"/>
<path d="M0 0 C3 3.75 3 3.75 3 6 C3.66 6 4.32 6 5 6 C5 6.66 5 7.32 5 8 C3.68 8 2.36 8 1 8 C1 7.34 1 6.68 1 6 C0.34 6 -0.32 6 -1 6 C-0.67 4.02 -0.34 2.04 0 0 Z " fill="#C9D627" transform="translate(349,109)"/>
<path d="M0 0 C2.31 0 4.62 0 7 0 C6.01 0.495 6.01 0.495 5 1 C5 3.64 5 6.28 5 9 C4.34 9 3.68 9 3 9 C3 6.36 3 3.72 3 1 C2.01 0.67 1.02 0.34 0 0 Z " fill="#5E5F5E" transform="translate(414,7)"/>
<path d="M0 0 C0.33 0 0.66 0 1 0 C1.6875 2.75 1.6875 2.75 2 6 C0.5625 8.375 0.5625 8.375 -1 10 C-1.66 9.67 -2.32 9.34 -3 9 C-2.01 6.03 -1.02 3.06 0 0 Z " fill="#456454" transform="translate(191,183)"/>
<path d="M0 0 C0.99 0 1.98 0 3 0 C3 2.97 3 5.94 3 9 C2.34 9 1.68 9 1 9 C0.67 6.03 0.34 3.06 0 0 Z " fill="#767676" transform="translate(429,7)"/>
<path d="M0 0 C1.73662334 3.22515763 2.8905928 6.51329166 4 10 C3.01 10 2.02 10 1 10 C-1.42857143 3.71428571 -1.42857143 3.71428571 0 0 Z " fill="#EBEDC0" transform="translate(342,109)"/>
<path d="M0 0 C5.94 1.485 5.94 1.485 12 3 C12 3.33 12 3.66 12 4 C7.01137151 4.29344873 4.03770942 4.05887078 0 1 C0 0.67 0 0.34 0 0 Z " fill="#92AE84" transform="translate(304,20)"/>
<path d="M0 0 C1.32 1.32 2.64 2.64 4 4 C3.01 4.495 3.01 4.495 2 5 C2 5.66 2 6.32 2 7 C1.01 7 0.02 7 -1 7 C-0.67 4.69 -0.34 2.38 0 0 Z " fill="#829276" transform="translate(289,8)"/>
<path d="M0 0 C0.99 0 1.98 0 3 0 C3 2.64 3 5.28 3 8 C2.01 8.33 1.02 8.66 0 9 C0 8.01 0 7.02 0 6 C0.66 6 1.32 6 2 6 C1.67 5.01 1.34 4.02 1 3 C0.34 2.67 -0.32 2.34 -1 2 C-0.67 1.34 -0.34 0.68 0 0 Z " fill="#75867D" transform="translate(309,189)"/>
<path d="M0 0 C2.64 0 5.28 0 8 0 C7.67 1.65 7.34 3.3 7 5 C6.67 4.34 6.34 3.68 6 3 C4.66923011 2.65657551 3.33568021 2.32380126 2 2 C1.34 1.34 0.68 0.68 0 0 Z " fill="#052B17" transform="translate(296,183)"/>
<path d="M0 0 C1.98 0 3.96 0 6 0 C6 0.66 6 1.32 6 2 C6.99 2.33 7.98 2.66 9 3 C7.3125 3.6875 7.3125 3.6875 5 4 C2.25 2.625 2.25 2.625 0 1 C0 0.67 0 0.34 0 0 Z " fill="#DAE08E" transform="translate(365,139)"/>
<path d="M0 0 C0 0.66 0 1.32 0 2 C-0.66 2 -1.32 2 -2 2 C-2 2.66 -2 3.32 -2 4 C-1.34 4.33 -0.68 4.66 0 5 C-1.32 5.33 -2.64 5.66 -4 6 C-4.66 4.68 -5.32 3.36 -6 2 C-2.25 0 -2.25 0 0 0 Z " fill="#D1DB67" transform="translate(366,133)"/>
<path d="M0 0 C1.98 0 3.96 0 6 0 C4.71389765 2.5722047 3.66606019 3.00974907 1 4 C-1.25 3.625 -1.25 3.625 -3 3 C-2.01 2.67 -1.02 2.34 0 2 C0 1.34 0 0.68 0 0 Z " fill="#D0D592" transform="translate(386,75)"/>
<path d="M0 0 C2.4375 0.8125 2.4375 0.8125 5 2 C5.33 2.99 5.66 3.98 6 5 C4.35 4.67 2.7 4.34 1 4 C0.67 2.68 0.34 1.36 0 0 Z " fill="#6E9360" transform="translate(294,51)"/>
<path d="M0 0 C0.66 0.33 1.32 0.66 2 1 C1.2884375 2.175625 1.2884375 2.175625 0.5625 3.375 C-0.33898023 4.88948678 -1.21179485 6.4235897 -2 8 C-2.99 8 -3.98 8 -5 8 C-4.67 6.68 -4.34 5.36 -4 4 C-3.34 4 -2.68 4 -2 4 C-1.34 2.68 -0.68 1.36 0 0 Z " fill="#DDDEA7" transform="translate(356,27)"/>
<path d="M0 0 C0.33 0 0.66 0 1 0 C1 1.65 1 3.3 1 5 C-1.31 4.67 -3.62 4.34 -6 4 C-6 3.34 -6 2.68 -6 2 C-4.02 2 -2.04 2 0 2 C0 1.34 0 0.68 0 0 Z " fill="#0A2B1A" transform="translate(310,190)"/>
<path d="M0 0 C0.99 0 1.98 0 3 0 C2.67 2.97 2.34 5.94 2 9 C0 7 0 7 -0.125 3.375 C-0.08375 2.26125 -0.0425 1.1475 0 0 Z " fill="#215434" transform="translate(132,187)"/>
<path d="M0 0 C0.99 0 1.98 0 3 0 C3 1.65 3 3.3 3 5 C1.68 4.67 0.36 4.34 -1 4 C-0.67 2.68 -0.34 1.36 0 0 Z " fill="#F7FCF4" transform="translate(249,186)"/>
<path d="M0 0 C0.99 0 1.98 0 3 0 C3 2.64 3 5.28 3 8 C0.37613513 4.93882432 0 4.26826873 0 0 Z " fill="#CBD05F" transform="translate(343,109)"/>
<path d="M0 0 C0.33 0.66 0.66 1.32 1 2 C1.66 2 2.32 2 3 2 C3 2.99 3 3.98 3 5 C1.02 5 -0.96 5 -3 5 C-3 4.34 -3 3.68 -3 3 C-2.01 3 -1.02 3 0 3 C0 2.01 0 1.02 0 0 Z " fill="#324B3C" transform="translate(203,200)"/>
<path d="M0 0 C-0.33 1.32 -0.66 2.64 -1 4 C-1.66 4 -2.32 4 -3 4 C-3 3.34 -3 2.68 -3 2 C-4.32 1.67 -5.64 1.34 -7 1 C-4.53721199 -0.231394 -2.7204945 -0.07159196 0 0 Z " fill="#466052" transform="translate(138,183)"/>
</svg>
